<?xml version="1.0" encoding="utf-8"?>
<!-- Generator: Adobe Illustrator 25.2.3, SVG Export Plug-In . SVG Version: 6.00 Build 0)  -->
<svg version="1.1" id="Layer_1" xmlns="http://www.w3.org/2000/svg" xmlns:xlink="http://www.w3.org/1999/xlink" x="0px" y="0px"
	 viewBox="0 0 767 208.4" style="enable-background:new 0 0 767 208.4;" xml:space="preserve">
<style type="text/css">
	.st0{fill:#4D5E80;}
	.st1{fill:none;}
	.st2{fill:#008AA2;}
</style>
<path class="st0" d="M31.7,199.8c-9.7-5.5-17.4-13-23.1-22.7C2.9,167.4,0,156.5,0,144.2c0-12.1,2.9-23,8.6-32.7
	c5.7-9.7,13.4-17.2,23.1-22.7c9.7-5.5,20.4-8.2,32.1-8.2c11.8,0,22.5,2.7,32.1,8.2c9.7,5.5,17.3,13,23,22.7
	c5.6,9.7,8.5,20.6,8.5,32.7c0,12.2-2.8,23.2-8.5,32.9s-13.3,17.2-23.1,22.7S75.4,208,63.8,208C52.1,208,41.4,205.3,31.7,199.8z
	 M83.5,180.7c5.7-3.4,10.2-8.2,13.4-14.5c3.2-6.3,4.8-13.6,4.8-21.9s-1.6-15.6-4.8-21.8c-3.2-6.2-7.7-11-13.4-14.3
	c-5.7-3.3-12.3-5-19.8-5s-14.1,1.7-19.9,5c-5.8,3.3-10.2,8.1-13.4,14.3c-3.2,6.2-4.8,13.5-4.8,21.8s1.6,15.6,4.8,21.9
	c3.2,6.3,7.7,11.1,13.4,14.5c5.8,3.4,12.4,5.1,19.9,5.1S77.8,184,83.5,180.7z"/>
<path class="st0" d="M229.1,117.8c7.2,7.4,10.9,17.8,10.9,31.1v57.9H215v-54.5c0-7.8-2-13.9-5.9-18.1c-3.9-4.2-9.3-6.3-16-6.3
	c-6.9,0-12.3,2.1-16.3,6.3c-4,4.2-6,10.2-6,18.1v54.5h-24.9V108h24.9v12.3c3.3-4.3,7.6-7.6,12.7-10.1c5.2-2.4,10.8-3.7,17-3.7
	C212.3,106.6,221.8,110.3,229.1,117.8z"/>
<path class="st0" d="M354.7,164.9h-72.1c0.6,7.1,3.1,12.7,7.5,16.7c4.4,4,9.8,6.1,16.2,6.1c9.3,0,15.9-4,19.8-11.9h26.9
	c-2.8,9.5-8.3,17.3-16.4,23.4c-8.1,6.1-18,9.2-29.8,9.2c-9.5,0-18-2.1-25.6-6.3c-7.5-4.2-13.4-10.2-17.6-17.9
	c-4.2-7.7-6.3-16.6-6.3-26.7c0-10.2,2.1-19.2,6.2-26.9c4.1-7.7,10-13.7,17.5-17.8s16.1-6.2,25.8-6.2c9.4,0,17.8,2,25.2,6.1
	c7.4,4,13.2,9.8,17.3,17.2c4.1,7.4,6.1,16,6.1,25.6C355.4,158.8,355.1,162,354.7,164.9z M329.5,148.1c-0.1-6.4-2.4-11.5-6.9-15.4
	c-4.5-3.9-10-5.8-16.6-5.8c-6.2,0-11.4,1.9-15.6,5.6c-4.2,3.7-6.8,8.9-7.7,15.6H329.5z"/>
<path class="st0" d="M398.5,102.5v31.2h41.9v19.8h-41.9v33h47.2v20.3h-72.2V82.2h72.2v20.3H398.5z"/>
<path class="st0" d="M546.3,90.1c9.9,5.1,17.6,12.4,23,21.8c5.4,9.4,8.1,20.4,8.1,32.9s-2.7,23.4-8.1,32.7
	c-5.4,9.3-13.1,16.5-23,21.6c-9.9,5.1-21.4,7.7-34.5,7.7h-43.5V82.4h43.5C524.8,82.4,536.3,85,546.3,90.1z M541.2,174.9
	c7.1-7.1,10.7-17.2,10.7-30.1s-3.6-23.1-10.7-30.4c-7.1-7.3-17.2-11-30.3-11h-17.6v82.1h17.6C524,185.6,534.1,182,541.2,174.9z"/>
<path class="st1" d="M520.9,93.4h-17.6v82.1h17.6c13.1,0,23.2-3.6,30.3-10.7c7.1-7.1,10.7-17.2,10.7-30.1s-3.6-23.1-10.7-30.4
	C544,97.1,534,93.4,520.9,93.4z"/>
<path class="st2" d="M702.9,71.9L702.9,71.9c-4.5,0-8.6,3-9.9,7.3l-28.1,81.2l-46.1-153c-1.3-4.3-5.2-7.2-9.6-7.4
	c-4.5-0.2-8.5,2.6-10.1,6.8L566.7,87c5,4.2,9.2,9.1,12.5,14.9c0.9,1.5,1.7,3.1,2.4,4.8l26.2-63.6l46.9,155.7
	c1.3,4.4,5.3,7.4,9.9,7.4c0,0,0,0,0.1,0c4.5,0,8.5-3,9.9-7.3l35.9-107.2H767V71.9H702.9z"/>
</svg>
