<svg height="512" viewBox="0 0 512 512" width="512" xmlns="http://www.w3.org/2000/svg"><g><path d="m446.66 107.56-32-48a8.033 8.033 0 0 0 -6.66-3.56h-120v-40a8 8 0 0 0 -8-8h-48a8 8 0 0 0 -8 8v40h-88a8 8 0 0 0 -8 8v96a8 8 0 0 0 8 8h88v32h-120a8.033 8.033 0 0 0 -6.66 3.56l-32 48a8.013 8.013 0 0 0 0 8.88l32 48a8.033 8.033 0 0 0 6.66 3.56h120v176h-80a8 8 0 0 0 0 16h192a8 8 0 0 0 0-16h-48v-176h88a8 8 0 0 0 8-8v-96a8 8 0 0 0 -8-8h-88v-32h120a8.033 8.033 0 0 0 6.66-3.56l32-48a8.013 8.013 0 0 0 0-8.88zm-206.66-83.56h32v32h-32zm32 464h-32v-176h32zm96-272v80h-259.72l-26.67-40 26.67-40zm-128-16v-32h32v32zm163.72-48h-259.72v-80h259.72l26.67 40z"/><path d="m368 488h-8a8 8 0 0 0 0 16h8a8 8 0 0 0 0-16z"/></g></svg>