<svg id="Capa_1" enable-background="new 0 0 512 512" height="512" viewBox="0 0 512 512" width="512" xmlns="http://www.w3.org/2000/svg"><g><path d="m119.723 364.734c-12.976 0-23.532 10.557-23.532 23.532s10.557 23.532 23.532 23.532 23.532-10.557 23.532-23.532-10.556-23.532-23.532-23.532zm0 32.064c-4.705 0-8.532-3.828-8.532-8.532s3.828-8.532 8.532-8.532 8.532 3.828 8.532 8.532-3.827 8.532-8.532 8.532z"/><path d="m416.323 364.734c-12.976 0-23.532 10.557-23.532 23.532s10.557 23.532 23.532 23.532 23.532-10.557 23.532-23.532-10.557-23.532-23.532-23.532zm0 32.064c-4.705 0-8.532-3.828-8.532-8.532s3.828-8.532 8.532-8.532 8.532 3.828 8.532 8.532-3.828 8.532-8.532 8.532z"/><path d="m501.71 269.839-142.441-156.687c-7.482-8.23-18.152-12.951-29.275-12.951h-2.364v-8.532c0-12.976-10.557-23.532-23.532-23.532s-23.532 10.557-23.532 23.532v8.532h-265.05c-8.556.001-15.516 6.961-15.516 15.517v256.516c0 8.556 6.96 15.516 15.516 15.516h48.626c-.002.173-.013.343-.013.516 0 30.656 24.94 55.597 55.597 55.597s55.597-24.94 55.597-55.597c0-.173-.013-.344-.014-.516h185.43c-.002.173-.013.343-.013.516 0 30.656 24.941 55.597 55.597 55.597s55.597-24.94 55.597-55.597c0-.173-.013-.344-.014-.516h24.579c8.556 0 15.516-6.96 15.516-15.516v-75.781c-.001-9.864-3.655-19.316-10.291-26.614zm-4.71 62.83h-8.532c-4.705 0-8.532-3.828-8.532-8.532v-8.532h17.064zm-16.741-64.129h-120.05c-4.705 0-8.532-3.828-8.532-8.532v-56.113c0-4.705 3.828-8.532 8.532-8.532h53.524zm-184.695-176.871c0-4.705 3.828-8.532 8.532-8.532s8.532 3.828 8.532 8.532v8.532h-17.064zm200.92 281.081h-26.802c-.842-2.858-1.913-5.668-3.226-8.414-1.787-3.736-6.264-5.318-10.002-3.53-3.737 1.787-5.317 6.265-3.53 10.002 2.652 5.544 3.996 11.418 3.996 17.458 0 22.385-18.211 40.597-40.597 40.597s-40.597-18.212-40.597-40.597 18.212-40.597 40.597-40.597c6.039 0 11.913 1.344 17.459 3.996 3.736 1.787 8.215.205 10.001-3.531 1.787-3.737.206-8.215-3.532-10.001-7.583-3.625-15.633-5.463-23.929-5.463-25.271 0-46.643 16.954-53.377 40.081h-189.86c-.842-2.858-1.913-5.668-3.226-8.414-1.787-3.736-6.264-5.318-10.002-3.53-3.737 1.787-5.317 6.265-3.53 10.002 2.652 5.544 3.996 11.418 3.996 17.458 0 22.385-18.212 40.597-40.597 40.597s-40.597-18.212-40.597-40.597 18.211-40.597 40.597-40.597c6.039 0 11.913 1.344 17.459 3.996 3.737 1.787 8.215.205 10.001-3.531 1.787-3.737.206-8.215-3.532-10.001-7.583-3.625-15.633-5.463-23.929-5.463-25.271 0-46.643 16.954-53.377 40.081h-50.832c-.285 0-.516-.231-.516-.516v-56.629h425.371c4.142 0 7.5-3.358 7.5-7.5s-3.358-7.5-7.5-7.5h-425.371v-184.889c0-.285.231-.516.516-.516h314.477c6.906 0 13.531 2.931 18.176 8.041l51.928 57.12h-39.887c-12.976 0-23.532 10.557-23.532 23.532v56.113c0 12.976 10.557 23.532 23.532 23.532h133.124c2.385 3.854 3.666 8.311 3.666 12.913v4.152h-24.564c-4.142 0-7.5 3.358-7.5 7.5v16.032c0 12.976 10.557 23.532 23.532 23.532h8.532v24.564c0 .286-.231.517-.516.517z"/><path d="m296.081 180.363h-104.21c-12.976 0-23.532 10.557-23.532 23.532v56.113c0 12.976 10.557 23.532 23.532 23.532h104.209c12.976 0 23.532-10.556 23.532-23.532v-56.113c.001-12.976-10.556-23.532-23.531-23.532zm8.532 79.645c0 4.705-3.828 8.532-8.532 8.532h-104.21c-4.705 0-8.532-3.828-8.532-8.532v-56.113c0-4.705 3.828-8.532 8.532-8.532h104.209c4.705 0 8.532 3.828 8.532 8.532v56.113z"/><path d="m351.677 155.798c0-4.142-3.358-7.5-7.5-7.5h-304.613c-4.142 0-7.5 3.358-7.5 7.5s3.358 7.5 7.5 7.5h304.613c4.142 0 7.5-3.358 7.5-7.5z"/><path d="m135.758 224.452h-36.589v-36.589c0-4.142-3.358-7.5-7.5-7.5s-7.5 3.358-7.5 7.5v36.589h-36.588c-4.142 0-7.5 3.358-7.5 7.5s3.358 7.5 7.5 7.5h36.589v36.589c0 4.142 3.358 7.5 7.5 7.5s7.5-3.358 7.5-7.5v-36.589h36.589c4.142 0 7.5-3.358 7.5-7.5s-3.359-7.5-7.501-7.5z"/></g></svg>