<?xml version="1.0" encoding="iso-8859-1"?>
<!-- Generator: Adobe Illustrator 19.0.0, SVG Export Plug-In . SVG Version: 6.00 Build 0)  -->
<svg version="1.1" id="Capa_1" xmlns="http://www.w3.org/2000/svg" xmlns:xlink="http://www.w3.org/1999/xlink" x="0px" y="0px"
	 viewBox="0 0 512 512" style="enable-background:new 0 0 512 512;" xml:space="preserve">
<g>
	<g>
		<path d="M455.595,372.059C471.736,358.292,482,337.828,482,315c0-41.355-33.645-75-75-75c-36.22,0-66.522,25.808-73.491,60H272
			v-15c0-40.336-23.084-75.426-56.849-93.006C232.503,177.355,242,156.8,242,135c0-41.463-34.535-75-76-75
			c-41.463,0-76,33.535-76,75c0,21.753,9.46,42.323,26.849,56.994C83.084,209.574,60,244.664,60,285v15H45
			c-24.813,0-45,20.187-45,45c0,19.555,12.541,36.228,30,42.42V497c0,8.284,6.716,15,15,15c8.337,0,445.947,0,452,0
			c8.284,0,15-6.716,15-15v-31C512,425.242,489.092,389.79,455.595,372.059z M407,270c24.813,0,45,20.187,45,45s-20.187,45-45,45
			s-45-20.187-45-45S382.187,270,407,270z M166,90c24.935,0,46,20.607,46,45s-21.065,45-46,45s-46-20.607-46-45S141.065,90,166,90z
			 M90,285c0-41.355,34.094-75,76-75s76,33.645,76,75v15H90V285z M30,345c0-8.271,6.729-15,15-15c2.693,0,286.4,0,288.509,0
			c2.258,11.079,6.967,21.274,13.532,30H45C36.729,360,30,353.271,30,345z M302,482H60v-92h273.886
			C314.233,409.274,302,436.22,302,466V482z M482,482H332v-16c0-41.907,33.645-76,75-76c41.355,0,75,34.093,75,76V482z"/>
	</g>
</g>
<g>
	<g>
		<path d="M437,60h-90c-8.284,0-15,6.716-15,15s6.716,15,15,15h90c8.284,0,15-6.716,15-15S445.284,60,437,60z"/>
	</g>
</g>
<g>
	<g>
		<path d="M467,0H317c-24.813,0-45,20.187-45,45v60c0,19.556,12.539,36.239,30,42.43V195c0,6.067,3.654,11.537,9.26,13.858
			c5.605,2.322,12.057,1.038,16.347-3.252L383.213,150H467c24.813,0,45-20.187,45-45V45C512,20.187,491.813,0,467,0z M482,105
			c0,8.271-6.729,15-15,15h-90c-3.979,0-7.794,1.581-10.606,4.394L332,158.787V135c0-8.284-6.716-15-15-15c-8.271,0-15-6.729-15-15
			V45c0-8.271,6.729-15,15-15h150c8.271,0,15,6.729,15,15V105z"/>
	</g>
</g>
<g>
</g>
<g>
</g>
<g>
</g>
<g>
</g>
<g>
</g>
<g>
</g>
<g>
</g>
<g>
</g>
<g>
</g>
<g>
</g>
<g>
</g>
<g>
</g>
<g>
</g>
<g>
</g>
<g>
</g>
</svg>
