<svg id="Capa_1" enable-background="new 0 0 512 512" height="512" viewBox="0 0 512 512" width="512" xmlns="http://www.w3.org/2000/svg"><g><path d="m497 271h-22.374c51.419-56.997 49.685-145.22-5.205-200.109-56.682-56.682-148.908-56.682-205.59 0l-7.831 7.831-7.831-7.831c-27.457-27.458-63.964-42.579-102.795-42.579s-75.338 15.121-102.795 42.579c-54.89 54.889-56.624 143.112-5.205 200.109h-22.374c-8.284 0-15 6.716-15 15s6.716 15 15 15h52.099l178.295 178.295c2.929 2.929 6.768 4.394 10.606 4.394s7.678-1.464 10.606-4.394l178.295-178.295h52.099c8.284 0 15-6.716 15-15s-6.716-15-15-15zm-433.208-15.732c-44.984-44.984-44.984-118.179 0-163.164 22.495-22.495 52.033-33.738 81.582-33.738 29.541 0 59.093 11.249 81.582 33.738l18.438 18.438c2.812 2.813 6.628 4.394 10.606 4.394s7.794-1.581 10.606-4.394l18.438-18.438c21.791-21.791 50.765-33.792 81.582-33.792s59.791 12.001 81.582 33.792c44.984 44.984 44.984 118.179 0 163.164l-15.732 15.732h-44.764l-17.16-68.638c-1.599-6.397-7.188-11-13.773-11.342-6.612-.349-12.623 3.658-14.875 9.854l-24.718 67.973-26.849-87.258c-1.87-6.078-7.369-10.315-13.722-10.576-6.349-.26-12.181 3.512-14.542 9.417l-42.354 105.885-29.117-123.75c-1.537-6.529-7.221-11.245-13.922-11.549-6.705-.312-12.789 3.877-14.91 10.241l-36.582 109.743h-45.664zm192.208 192.207-146.475-146.475h26.475c6.456 0 12.188-4.131 14.23-10.257l23.279-69.837 27.889 118.53c1.499 6.371 6.955 11.034 13.482 11.522.376.028.752.042 1.125.042 6.092 0 11.631-3.704 13.921-9.43l44.227-110.566 27.51 89.406c1.896 6.161 7.516 10.422 13.96 10.584 6.442.168 12.271-3.811 14.474-9.869l23.243-63.919 8.108 32.431c1.669 6.678 7.669 11.363 14.552 11.363h26.475z"/></g></svg>