<?xml version="1.0" encoding="iso-8859-1"?>
<!-- Generator: Adobe Illustrator 19.0.0, SVG Export Plug-In . SVG Version: 6.00 Build 0)  -->
<svg version="1.1" id="Layer_1" xmlns="http://www.w3.org/2000/svg" xmlns:xlink="http://www.w3.org/1999/xlink" x="0px" y="0px"
	 viewBox="0 0 469.333 469.333" style="enable-background:new 0 0 469.333 469.333;" xml:space="preserve">
<g>
	<g>
		<g>
			<path d="M466.208,109.792L359.542,3.125c-2-2-4.708-3.125-7.542-3.125H42.667C19.146,0,0,19.135,0,42.667v384
				c0,23.531,19.146,42.667,42.667,42.667h384c23.521,0,42.667-19.135,42.667-42.667V117.333
				C469.333,114.5,468.208,111.792,466.208,109.792z M362.667,36.417l70.25,70.25H384c-11.771,0-21.333-9.573-21.333-21.333V36.417z
				 M448,426.667c0,11.76-9.563,21.333-21.333,21.333h-384c-11.771,0-21.333-9.573-21.333-21.333v-384
				c0-11.76,9.563-21.333,21.333-21.333h298.667v64C341.333,108.865,360.479,128,384,128h64V426.667z"/>
			<path d="M319.229,241.823l-10.896,33.646l-54.187-161.75c-1.5-4.51-5.854-7.667-10.521-7.271
				c-4.729,0.188-8.792,3.469-9.938,8.073l-55.104,220.458l-31.083-93.25c-1.458-4.354-5.542-7.292-10.125-7.292h-64
				c-5.896,0-10.667,4.771-10.667,10.667s4.771,10.667,10.667,10.667h56.313l40.229,120.708c1.458,4.365,5.542,7.292,10.125,7.292
				c0.125,0,0.271,0,0.417-0.01c4.729-0.177,8.792-3.469,9.938-8.073l55.125-220.552l52.875,157.812
				c1.438,4.354,5.521,7.281,10.104,7.281c0.021,0,0.042,0,0.063,0c4.604-0.021,8.667-3,10.083-7.385l18.479-57.073h56.25
				c5.896,0,10.667-4.771,10.667-10.667s-4.771-10.667-10.667-10.667h-64C324.75,234.437,320.646,237.417,319.229,241.823z"/>
		</g>
	</g>
</g>
<g>
</g>
<g>
</g>
<g>
</g>
<g>
</g>
<g>
</g>
<g>
</g>
<g>
</g>
<g>
</g>
<g>
</g>
<g>
</g>
<g>
</g>
<g>
</g>
<g>
</g>
<g>
</g>
<g>
</g>
</svg>
