<?xml version="1.0" encoding="iso-8859-1"?>
<!-- Generator: Adobe Illustrator 19.0.0, SVG Export Plug-In . SVG Version: 6.00 Build 0)  -->
<svg version="1.1" id="Capa_1" xmlns="http://www.w3.org/2000/svg" xmlns:xlink="http://www.w3.org/1999/xlink" x="0px" y="0px"
	 viewBox="0 0 512 512" style="enable-background:new 0 0 512 512;" xml:space="preserve">
<g>
	<g>
		<circle cx="289.676" cy="185.65" r="7.518"/>
	</g>
</g>
<g>
	<g>
		<circle cx="308.005" cy="203.987" r="7.518"/>
	</g>
</g>
<g>
	<g>
		<circle cx="326.345" cy="222.32" r="7.518"/>
	</g>
</g>
<g>
	<g>
		<circle cx="263.666" cy="211.664" r="7.518"/>
	</g>
</g>
<g>
	<g>
		<circle cx="282.005" cy="229.987" r="7.518"/>
	</g>
</g>
<g>
	<g>
		<circle cx="300.335" cy="248.334" r="7.518"/>
	</g>
</g>
<g>
	<g>
		<circle cx="237.673" cy="237.67" r="7.518"/>
	</g>
</g>
<g>
	<g>
		<circle cx="255.995" cy="256" r="7.518"/>
	</g>
</g>
<g>
	<g>
		<circle cx="274.327" cy="274.33" r="7.518"/>
	</g>
</g>
<g>
	<g>
		<circle cx="211.656" cy="263.666" r="7.518"/>
	</g>
</g>
<g>
	<g>
		<circle cx="229.985" cy="282.013" r="7.518"/>
	</g>
</g>
<g>
	<g>
		<circle cx="248.325" cy="300.336" r="7.518"/>
	</g>
</g>
<g>
	<g>
		<circle cx="185.646" cy="289.68" r="7.518"/>
	</g>
</g>
<g>
	<g>
		<circle cx="203.985" cy="308.013" r="7.518"/>
	</g>
</g>
<g>
	<g>
		<circle cx="222.315" cy="326.35" r="7.518"/>
	</g>
</g>
<g>
	<g>
		<path d="M491.17,67.569l-46.738-46.738C430.999,7.398,413.139,0,394.142,0s-36.857,7.398-50.29,20.831L20.831,343.852
			C7.398,357.285,0,375.145,0,394.142s7.398,36.857,20.83,50.289l46.738,46.738C81.002,504.602,98.861,512,117.858,512
			c18.998,0,36.858-7.398,50.29-20.831l323.021-323.021C504.602,154.716,512,136.856,512,117.858
			C512,98.861,504.602,81.001,491.17,67.569z M480.531,157.51L157.51,480.532c-10.59,10.591-24.673,16.424-39.652,16.424
			c-14.978,0-29.06-5.833-39.651-16.424l-46.739-46.738c-10.591-10.591-16.424-24.673-16.424-39.652
			c0-14.978,5.832-29.06,16.425-39.652L354.49,31.468c10.591-10.591,24.674-16.424,39.652-16.424
			c14.978,0,29.06,5.833,39.651,16.424l46.739,46.738c10.591,10.591,16.424,24.674,16.424,39.652
			C496.956,132.837,491.124,146.919,480.531,157.51z"/>
	</g>
</g>
<g>
	<g>
		<path d="M370.892,200.781l-59.673-59.673c-4.392-4.391-10.23-6.809-16.44-6.809c-6.211,0-12.049,2.419-16.441,6.81
			l-137.231,137.23c-4.391,4.391-6.809,10.23-6.809,16.44c0,6.21,2.418,12.048,6.809,16.44l59.673,59.673
			c4.392,4.391,10.23,6.81,16.441,6.81s12.049-2.419,16.441-6.81l137.229-137.23c4.392-4.391,6.811-10.23,6.811-16.441
			C377.702,211.011,375.283,205.172,370.892,200.781z M360.254,223.024l-137.23,137.23c-1.549,1.55-3.61,2.404-5.802,2.404
			c-2.192,0-4.253-0.854-5.802-2.404l-59.673-59.673c-3.2-3.199-3.2-8.405,0-11.605l137.231-137.23
			c1.549-1.55,3.61-2.404,5.802-2.404s4.253,0.854,5.802,2.404l59.673,59.673c1.549,1.55,2.404,3.611,2.404,5.802
			C362.658,219.413,361.804,221.474,360.254,223.024z"/>
	</g>
</g>
<g>
	<g>
		<path d="M235.543,88.225L168.149,20.83C154.716,7.398,136.856,0,117.859,0s-36.857,7.398-50.29,20.831L20.831,67.569
			C7.398,81.002,0,98.862,0,117.858c0,18.996,7.398,36.857,20.83,50.289l68.398,68.398c1.469,1.469,3.394,2.203,5.319,2.203
			s3.85-0.735,5.319-2.203c2.937-2.937,2.937-7.7,0-10.638L31.469,157.51c-10.592-10.591-16.425-24.674-16.425-39.652
			c0-14.978,5.832-29.06,16.425-39.652l46.738-46.738c10.591-10.591,24.674-16.424,39.652-16.424s29.06,5.833,39.651,16.424
			l67.394,67.395c2.937,2.938,7.699,2.938,10.639,0C238.48,95.926,238.48,91.163,235.543,88.225z"/>
	</g>
</g>
<g>
	<g>
		<path d="M491.17,343.853l-68.413-68.414c-2.938-2.937-7.7-2.937-10.639,0c-2.937,2.937-2.937,7.7,0,10.638l68.414,68.413
			c21.864,21.864,21.864,57.44,0,79.304l-46.738,46.738c-21.864,21.864-57.44,21.864-79.304,0l-69.416-69.416
			c-2.937-2.938-7.699-2.938-10.638,0c-2.937,2.937-2.937,7.7,0,10.638l69.416,69.416c13.866,13.865,32.078,20.797,50.29,20.797
			c18.212,0,36.425-6.932,50.29-20.797l46.738-46.738C518.898,416.702,518.898,371.583,491.17,343.853z"/>
	</g>
</g>
<g>
</g>
<g>
</g>
<g>
</g>
<g>
</g>
<g>
</g>
<g>
</g>
<g>
</g>
<g>
</g>
<g>
</g>
<g>
</g>
<g>
</g>
<g>
</g>
<g>
</g>
<g>
</g>
<g>
</g>
</svg>
