<?xml version="1.0" encoding="iso-8859-1"?>
<!-- Generator: Adobe Illustrator 19.0.0, SVG Export Plug-In . SVG Version: 6.00 Build 0)  -->
<svg version="1.1" id="Capa_1" xmlns="http://www.w3.org/2000/svg" xmlns:xlink="http://www.w3.org/1999/xlink" x="0px" y="0px"
	 viewBox="0 0 508 508" style="enable-background:new 0 0 508 508;" xml:space="preserve">
<g>
	<g>
		<path d="M214.694,0c-58.8,0-106.5,47.8-106.5,106.5c0,54.7,43.9,155.7,106.5,155.7c62.6,0,106.5-101,106.5-155.7
			C321.194,47.8,273.394,0,214.694,0z M214.694,245.8c-48,0-90.1-86.8-90.1-139.3c-0.1-49.7,40.4-90.1,90.1-90.1
			c49.7,0,90.1,40.4,90.1,90.1C304.794,159,262.694,245.8,214.694,245.8z"/>
	</g>
</g>
<g>
	<g>
		<path d="M368.894,311.2c-11.9,7.5-20.2,19.3-23.3,33l16,3.6c2.1-9.5,7.8-17.6,16-22.8s18-6.9,27.4-4.8l3.6-16
			C394.994,301.2,380.794,303.6,368.894,311.2z"/>
	</g>
</g>
<g>
	<g>
		<path d="M498.494,469.9l-31.4-49.6l-13.8,8.8l-5.6-8.8c19.1-15,31.4-38.3,31.4-64.4c0-45.3-36.7-81.9-81.9-81.9
			c-4.8,0-9.5,0.5-14,1.3c-36-29.3-76.2-29.3-76.2-29.3l-92.2,125.4l-92.2-125.4c0,0-84.8,1.7-111.6,83.7c-6.5,20-6.9,41.6-2.1,62
			l27.2,116.3h357.1l16.8-71.4c8.4-1.3,16.4-3.9,23.8-7.6l5.6,8.8l-13.8,8.8l31.4,49.6c4.5,7.2,18.3,16.7,33.9,7.6
			C502.594,497,505.694,481.3,498.494,469.9z M380.194,491.6h-331.1l-24.4-103.8c-4.2-17.6-3.5-36.1,1.8-53.4
			c12.1-39.4,47.2-67.7,88.1-71.6l100.2,136.2l100.2-136.2c17.8,1.7,34.7,8,49.2,18.1c-28.7,12.7-48.8,41.4-48.8,74.9
			c0,43.8,34.5,79.5,77.8,81.7L380.194,491.6z M397.094,421.3c-36.2,0-65.5-29.3-65.5-65.5s29.3-65.5,65.5-65.5s65.5,29.3,65.5,65.5
			S433.294,421.3,397.094,421.3z M482.094,489.9c-3.7,2.4-9,1.1-11.3-2.5l-22.7-35.8l13.8-8.8l22.7,35.8
			C487.094,482.5,485.894,487.5,482.094,489.9z"/>
	</g>
</g>
<g>
</g>
<g>
</g>
<g>
</g>
<g>
</g>
<g>
</g>
<g>
</g>
<g>
</g>
<g>
</g>
<g>
</g>
<g>
</g>
<g>
</g>
<g>
</g>
<g>
</g>
<g>
</g>
<g>
</g>
</svg>
