<svg id="Capa_1" enable-background="new 0 0 512 512" height="512" viewBox="0 0 512 512" width="512" xmlns="http://www.w3.org/2000/svg"><g><path d="m241 150h30v-30h30v-30h-30v-30h-30v30h-30v30h30z"/><path d="m256 210c57.897 0 105-47.103 105-105s-47.103-105-105-105-105 47.103-105 105 47.103 105 105 105zm0-180c41.355 0 75 33.645 75 75s-33.645 75-75 75-75-33.645-75-75 33.645-75 75-75z"/><path d="m462.108 352.21c12.254-11.882 19.892-28.5 19.892-46.877 0-36.024-29.309-65.333-65.333-65.333-36.025 0-65.334 29.309-65.334 65.333 0 18.377 7.638 34.994 19.893 46.877-14.188 7.726-26.208 18.95-34.893 32.507-8.685-13.557-20.704-24.781-34.892-32.507 12.254-11.882 19.892-28.5 19.892-46.877 0-36.024-29.309-65.333-65.333-65.333-36.025 0-65.333 29.309-65.333 65.333 0 18.377 7.638 34.994 19.893 46.877-14.188 7.725-26.208 18.95-34.893 32.507-8.685-13.557-20.704-24.781-34.892-32.507 12.254-11.882 19.892-28.5 19.892-46.877 0-36.025-29.308-65.333-65.333-65.333s-65.334 29.309-65.334 65.333c0 18.377 7.638 34.994 19.893 46.877-29.696 16.169-49.893 47.665-49.893 83.79v76h512v-76c0-36.125-20.198-67.621-49.892-83.79zm-80.775-46.877c0-19.483 15.851-35.333 35.334-35.333 19.482 0 35.333 15.851 35.333 35.333s-15.851 35.333-35.333 35.333c-19.483.001-35.334-15.85-35.334-35.333zm-160.666 0c0-19.482 15.85-35.333 35.333-35.333 19.482 0 35.333 15.851 35.333 35.333s-15.851 35.333-35.333 35.333c-19.483.001-35.333-15.85-35.333-35.333zm-160.667 0c0-19.482 15.851-35.333 35.333-35.333s35.333 15.851 35.333 35.333-15.851 35.333-35.333 35.333c-19.482.001-35.333-15.85-35.333-35.333zm62.969 71.485-27.635 27.635-27.636-27.635c8.399-3.938 17.762-6.152 27.636-6.152 9.873.001 19.236 2.214 27.635 6.152zm-92.969 59.182c0-15.246 5.263-29.277 14.049-40.404l36.284 36.284v50.12h-50.333zm130.667 46h-50.333v-50.121l36.284-36.284c8.786 11.128 14.049 25.159 14.049 40.404zm30-46c0-30.862 21.518-56.777 50.333-63.576v109.576h-50.333zm130.666 46h-50.333v-109.576c28.815 6.799 50.333 32.713 50.333 63.576zm160.667 0h-130.667v-46c0-30.863 21.518-56.777 50.334-63.576v79.576h30v-79.576c28.815 6.799 50.333 32.714 50.333 63.576z"/></g></svg>