<?xml version="1.0"?>
<svg xmlns="http://www.w3.org/2000/svg" id="Outline" viewBox="0 0 512 512" width="512" height="512"><circle cx="56.04" cy="39.96" r="8.04"/><circle cx="328.04" cy="231.96" r="8.04"/><circle cx="120" cy="32" r="16"/><path d="M64,88A24,24,0,1,0,88,64,24.027,24.027,0,0,0,64,88Zm32,0a8,8,0,1,1-8-8A8.009,8.009,0,0,1,96,88Z"/><circle cx="304" cy="280" r="16"/><path d="M272,360a24,24,0,1,0-24-24A24.027,24.027,0,0,0,272,360Zm0-32a8,8,0,1,1-8,8A8.009,8.009,0,0,1,272,328Z"/><path d="M376,197.992V62.624A24,24,0,0,0,368,16H288a24,24,0,0,0-8,46.624V197.992L160.948,420.223A8,8,0,0,0,160,424a72.081,72.081,0,0,0,72,72H424a72.081,72.081,0,0,0,72-72,8,8,0,0,0-.948-3.777ZM288,32h80a8,8,0,0,1,0,16H288a8,8,0,0,1,0-16Zm7.052,171.777A8,8,0,0,0,296,200V64h64V200a8,8,0,0,0,.948,3.777l41.216,76.936a81.463,81.463,0,0,0-10.78-.713c-37.074,0-67.236,25.121-67.236,56,0,22.056-22.463,40-50.074,40-16.647,0-32.18-6.628-41.549-17.729a34.4,34.4,0,0,1-8.516-21.881ZM424,480H232a56.07,56.07,0,0,1-55.967-54.055l36.834-68.756a54.02,54.02,0,0,0,7.43,11.4C232.669,383.249,252.772,392,274.074,392c36.433,0,66.074-25.121,66.074-56,0-22.056,22.984-40,51.236-40a62.772,62.772,0,0,1,20.836,3.484l67.747,126.461A56.07,56.07,0,0,1,424,480Z"/><path d="M16,152a24.039,24.039,0,0,0,16,22.624V456a40.045,40.045,0,0,0,40,40H88a40.045,40.045,0,0,0,40-40V174.624A24,24,0,0,0,120,128H40A24.028,24.028,0,0,0,16,152Zm96,304a24.027,24.027,0,0,1-24,24H72a24.027,24.027,0,0,1-24-24V251.977A39.333,39.333,0,0,0,64,256a24.027,24.027,0,0,0,24-24,8.009,8.009,0,0,1,8-8c6.575,0,15.663,5.438,16,8Zm0-243.977A39.333,39.333,0,0,0,96,208a24.027,24.027,0,0,0-24,24,8.009,8.009,0,0,1-8,8c-6.573,0-15.656-5.433-16-8.017V176h64ZM128,152a8.009,8.009,0,0,1-8,8H40a8,8,0,0,1,0-16h80A8.009,8.009,0,0,1,128,152Z"/></svg>
