<svg height="512" viewBox="0 0 55 60" width="512" xmlns="http://www.w3.org/2000/svg"><g id="Page-1" fill="none" fill-rule="evenodd"><g id="021---Brain-Profile" fill="rgb(0,0,0)" fill-rule="nonzero" transform="translate(0 -1)"><path id="Shape" d="m5.4 27.4c-.1362013 1.1994107-.62634728 2.3311327-1.408 3.251-3.142 3.389-4.039 4.556-3.929 5.764.17100613.8398568.70476403 1.5610524 1.458 1.97.32986222.228362.67804944.4290463 1.041.6.43.22 1.15.589 1.2.853.06552896.3384272.02718405.6887603-.11 1.005-.149.313-.3.583-.434.819-.389.69-.978 1.734-.055 2.512.215.191.585.482.922.74-.25025843.4397629-.36245216.9446347-.322 1.449.05336063.3910474.26574799.7427348.587.972.224.159.462.3.7.432.586.336.815.492.894.8.07529713.378294.04626028.7699459-.084 1.133-.33248631 1.1748335-.27636383 2.4256634.16 3.566.51660024 1.8981201 2.42814305 3.0601589 4.351 2.645 2.8475107-.6884505 5.6556269-1.5306851 8.412-2.523 1.38.823 2.691 2.823 3.638 5.574.4159385 1.2162122 1.5576341 2.0346348 2.843 2.038h20.166c1.0382387-.0007248 2.0022976-.5382207 2.5487514-1.4210164.5464538-.8827958.5976113-1.9853811.1352486-2.9149836-1.248833-2.777965-2.02614-5.7445739-2.3-8.778-.3548274-2.990845.0939069-6.0222181 1.3-8.782.7191827-1.4927273 1.6058864-2.8987717 2.643-4.191 1.978-2.674 4.221-5.7 4.293-10.856.059752-2.8666138-.2914826-5.727004-1.043-8.494-1.007256-3.4354364-3.0995558-6.45250199-5.964-8.6-7.879-6.2-14.668-7.337-26.9-4.515-3.32.766-7.08 1.935-9.789 4.8-1.76433028 1.88596916-3.12540934 4.112014-4 6.542-.36984837 1.0699008-.67046944 2.1624914-.9 3.271l-.08.346c-.22171004.806797-.517293 1.5914476-.883 2.344-.5328696.9104401-.81671159 1.9451011-.823 3 .20262587.8929078.7189068 1.6834741 1.455 2.228.49.449.811.765.814 1.052-.04264942.1626622-.10724238.3187619-.192.464-.16136254.2818903-.27776199.587228-.345.905zm30.9 2.578c-.0777221-.2537601-.2531301-.4662165-.4875877-.5905729-.2344577-.1243563-.5087328-.1504117-.7624123-.0724271-.561214.1719239-1.1403646.2786272-1.726.318-1.1284076.0900877-2.2624006-.0810036-3.314-.5-.3961765-.1389989-.8370666-.0293658-1.122.279-1.4582009 1.6633923-3.9435454 1.9419218-5.7337766.6425772s-2.2957386-3.7486257-1.1662234-5.6505772c.2841505-.4735842.1305842-1.0878495-.343-1.372s-1.0878495-.1305842-1.372.343c-.2387546.4056206-.4306519.837054-.572 1.286-.7865594-.0431601-1.4073777-.6844545-1.425-1.472v-.025c-.0005173-.2638693-.1064589-.5165907-.2942597-.7019501-.1878009-.1853594-.4418868-.2879853-.7057403-.2850499-.5546788.005491-1.0011256.4572951-1 1.012.0033133 1.771897 1.3385459 3.2578816 3.1 3.45.0035931.3352279.0340236.6696299.091 1-2.2324706.481588-4.5472149-.321437-6.0017999-2.0821286-1.4545849-1.7606915-1.8063977-4.1853808-.9122001-6.2868714.224282.2261283.4743252.4251561.745.593.3061766.1841704.6873492.1910076.9999338.0179361.3125845-.1730715.509092-.4997581.5155-.857.0064079-.3572419-.1782572-.6907657-.4844338-.8749361-.4242889-.2561159-.744997-.6532842-.906-1.122-.0774511-.2207665-.1170089-.4530416-.117-.687-.0005662-1.1619809.9380347-2.1059453 2.1-2.112.6635536-.0017937 1.2881032.3132676 1.681.848.329714.4432085.9562915.535214 1.3995.2055s.535214-.9562915.2055-1.3995c-.6791747-.9078904-1.7086772-1.4885052-2.837-1.6.2981423-1.4004791 1.5331428-2.40305795 2.965-2.407.1220636.00613627.2436298.01982917.364.041-.075.206-.154.411-.209.624-.1146013.525141.2064181 1.0469386.7268254 1.1814108s1.0540258-.1664888 1.2081746-.6814108c.1131191-.4349724.2857489-.8522451.513-1.24.8864895-1.48751502 2.4873822-2.40198557 4.219-2.41.9415765.00419093 1.8616086.28214624 2.648.8-.1494302.42084817-.2284893.86344408-.234 1.31 0 .3572656.1905989.6873926.5.8660255.3094011.1786328.6905989.1786328 1 0 .3094011-.1786329.5-.5087599.5-.8660255 0-.75150819.4009248-1.44593041 1.05175-1.82168451s1.4526748-.3757541 2.1035 0 1.05175 1.07017632 1.05175 1.82168451c0 .5522847.4477153 1 1 1s1-.4477153 1-1c0-.078-.019-.15-.023-.227 2.8632149.17698891 5.2708325 2.2122023 5.922 5.006-.4663792.1360285-.9046296.3544764-1.294.645-.4418278.3313708-.5313708.9581722-.2 1.4s.9581722.5313708 1.4.2c.7992752-.5915284 1.9031444-.5444136 2.6491099.113068s.9313487 1.7466923.4448901 2.613932c-.2190393.3821471-.5503651.6876371-.949.875-.5000938.234721-.715221.8304062-.4805 1.3305s.8304062.715221 1.3305.4805c.2653408-.1284251.5161136-.2849905.748-.467.5179403 1.4723837.1912506 3.1100503-.852 4.271l-.018.019c-1.3042269 1.4132025-3.3853035 1.7946925-5.106.936-.1685217-.0884679-.3305909-.1887168-.485-.3.736526-1.0316847.8393863-2.3869748.267-3.518-.1595191-.3197527-.4775068-.530114-.8341803-.5518427-.3566735-.0217288-.6978456.148476-.895.4465-.1971545.2980239-.2203388.67859-.0608197.9983427.3307752.6610472.1253838 1.4647156-.482 1.886-.3553341.2371865-.7946421.3124077-1.2086456.2069522s-.7637917-.3816764-.9623544-.7599522c-.1505331-.3352823-.4728503-.560972-.8393978-.5877549s-.7182475.1496579-.9159183.4594976c-.1976707.3098398-.209453.7031405-.0306839 1.0242573.7924969 1.6173802 2.6976151 2.3506546 4.37 1.682.3576468.3120871.7510641.5806314 1.172.8 1.4258688.7378592 3.0832475.8906825 4.62.426-.9881191 1.3496411-2.4670999 2.2568547-4.118 2.526-.5164685.0807281-.8836179.5456149-.8424633 1.066732s.4767254.92261.9994633.921268c.0536013.000104.1071186-.0042443.16-.013.6085731-.1055551 1.2033216-.279317 1.773-.518.3078359.5449849.5575408 1.1208145.745 1.718.034839.1037641.052406.2125441.052.322-.0000809.4319675-.2577812.8222556-.655.992-.4601002.1793734-.9833864.0383171-1.291-.348-.7753347-.9089086-1.7895947-1.5826572-2.928-1.945-2.161-.723-2.995-1.37-3.349-2.074.5189719-.064577 1.0317177-.1719426 1.533-.321.2546819-.0776751.4678702-.2537122.5923223-.4891011.124452-.235389.1498903-.510691.0706777-.7648989zm1.079 12.1c.074-.423.164-.852.255-1.284.390066-1.5115533.5432213-3.0744801.454-4.633.28386.2004321.5415277.4355917.767.7.459033.542997 1.0855499.9179925 1.781 1.066-.0944366.8250822-.2343158 1.6443268-.419 2.454-.1.456-.189.908-.268 1.352-1.1 6.133.564 12.067 2.42 17.267h-2.414c-1.861-5.115-3.639-10.995-2.584-16.916zm-30.909-18.578c-.4-.37-.784-.72-.827-1.028.12145117-.6667198.34686443-1.3102274.668-1.907.42001861-.868796.75653105-1.775538 1.005-2.708l.08-.349c.21395743-1.0264434.49217176-2.0384356.833-3.03.78308608-2.1755456 2.0011902-4.1687451 3.58-5.858 2.336-2.474 5.6-3.493 8.783-4.227 13.046-3.006 18.727-.963 25.219 4.143 2.5392323 1.8786596 4.3916971 4.5387892 5.273 7.572.6990907 2.5802541 1.0250663 5.2473267.968 7.92-.063 4.509-1.927 7.028-3.9 9.7-1.1278574 1.413146-2.0901296 2.9508353-2.868 4.583-1.3495672 3.0857211-1.8518237 6.4755214-1.455 9.82.2987412 3.2644765 1.1438377 6.4555608 2.5 9.44.1468124.3091207.1253584.6718491-.0568695.9615083s-.4999211.4660202-.8421305.4674917h-.93c-1.861-5.114-3.639-10.994-2.584-16.917.074-.425.165-.855.256-1.29.2396456-1.0330482.4011027-2.0826867.483-3.14 1.0229541-.5248978 1.6670166-1.5772396 1.669-2.727.0007604-.3214733-.0505714-.6409461-.152-.946-.2237503-.7068259-.5196421-1.3887508-.883-2.035 1.6996798-1.2225595 2.8838013-3.0336737 3.322-5.081 1.7052742-2.0295981 1.9280795-4.9200341.554-7.187.4329736-1.1178308.35362-2.3693527-.2170722-3.4235454s-1.5752333-1.8048599-2.7479278-2.0534546c-.7484567-4.0078593-4.2349279-6.9213614-8.312-6.946-.1 0-.189.013-.285.016-.6520293-1.02427507-1.7275116-1.70374832-2.9325367-1.85273183-1.2050251-.14898352-2.4136075.24809894-3.2954633 1.08273183-1.1111888-.7223901-2.4076383-1.10788672-3.733-1.11-2.1360548.00829116-4.1492879.99978447-5.458 2.688-1.4535783-.42379534-3.0209998-.16356549-4.2596489.70720464-1.2386491.87077014-2.0140904 2.25757246-2.1073511 3.76879536-1.8356677.7467503-2.859211 2.7142233-2.417 4.646-.872137 1.3153195-1.3387792 2.8578118-1.342 4.436-.0121347 2.4982719 1.1272771 4.8628483 3.0888056 6.4100766 1.9615285 1.5472284 4.5264524 2.1045843 6.9531944 1.5109234.9104768 1.7274146 2.5743229 2.9315304 4.4997712 3.2564584s3.892299-.2664916 5.3192288-1.5994584c.6787871.2125443 1.3790793.3490476 2.088.407.431 1.6 1.576 2.647 3.832 3.542.4100676 1.7260784.3510277 3.5304207-.171 5.226-.095.454-.189.9-.267 1.346-1.091 6.13.573 12.065 2.428 17.265h-12.565c-.4324283-.0040645-.8146936-.2819297-.952-.692-.650973-2.1230525-1.7732518-4.0715719-3.283-5.7l.747-.262c.739-.26 1.3-.456 1.576-.544 4.277-1.346 6.417-3.294 6.358-5.792.0008734-.2672036-.1080662-.523032-.3013075-.7075755-.1932413-.1845436-.4538122-.2815941-.7206925-.2684245-.2652396.0060303-.5172116.1172157-.7004495.309081s-.2827211.4486826-.2765505.713919c.024 1.031-.817 2.534-4.961 3.838-.293.092-.871.295-1.637.564-.717.252-1.6.564-2.575.9h-.006c-2.8071375 1.0188053-5.6673131 1.88507-8.568 2.595-.93372293.1756563-1.83982378-.4163531-2.054-1.342-.31267287-.7811699-.34796989-1.6459468-.1-2.45.20666185-.6727251.2328708-1.3879536.076-2.074-.28592273-.9177549-.95780315-1.6652219-1.84-2.047l-.213-.123c.10668165-.2192304.2349846-.4272621.383-.621.16603676-.21239.23928586-.4828217.20313822-.7499754-.03614764-.2671536-.17862953-.5083955-.39513822-.6690246-.24-.178-.81-.607-1.22-.935.051-.094.109-.2.161-.291.153-.271.329-.584.5-.942.31962519-.698978.41364466-1.4801435.269-2.235-.232-1.227-1.4-1.825-2.256-2.262-.26187633-.1230928-.51423856-.2654853-.755-.426-.23394416-.1633988-.45493325-.3446031-.661-.542.017-.578 2.217-2.951 3.4-4.226 1.05130103-1.2037766 1.71794724-2.6948489 1.914-4.281.0424573-.1152125.09325865-.227176.152-.335.25040003-.422581.39100881-.9011322.409-1.392-.10089319-1.0104055-.63635711-1.9269357-1.467-2.511z"/><path id="Shape" d="m36.038 18.578c.0744538-.3538613-.0479307-.7203513-.3200693-.9584726-.2721387-.2381213-.6516311-.3107736-.9924777-.1900059-.3408465.1207677-.5899418.4161394-.651453.7724785-.1964965 1.0312282-.7914842 1.9434708-1.656 2.539-1.6627796 1.1209256-3.8933765.868797-5.264-.595-.3703069-.4097953-1.0027047-.4418069-1.4125-.0715-.4097952.3703069-.4418069 1.0027047-.0715 1.4125.8467792.9357661 1.9661484 1.581852 3.2 1.847-.5587904.7895911-1.4666859 1.2580861-2.434 1.256-.5522847 0-1 .4477153-1 1s.4477153 1 1 1c2.071894.0100616 3.9317517-1.2687899 4.664-3.207 2.4870644-.4114255 4.4562641-2.3255929 4.938-4.8z"/><path id="Shape" d="m26.855 14.39c0-.5522847-.4477153-1-1-1-2.5391394.0033055-4.5966945 2.0608606-4.6 4.6 0 .5522847.4477153 1 1 1s1-.4477153 1-1c0-1.4359403 1.1640597-2.6 2.6-2.6.5522847 0 1-.4477153 1-1z"/></g></g></svg>