<?xml version="1.0" encoding="iso-8859-1"?>
<!-- Generator: Adobe Illustrator 19.0.0, SVG Export Plug-In . SVG Version: 6.00 Build 0)  -->
<svg version="1.1" id="Capa_1" xmlns="http://www.w3.org/2000/svg" xmlns:xlink="http://www.w3.org/1999/xlink" x="0px" y="0px"
	 viewBox="0 0 512 512" style="enable-background:new 0 0 512 512;" xml:space="preserve">
<g>
	<g>
		<path d="M335.043,363.993H132.771c-5.523,0-10,4.477-10,10s4.477,10,10,10h202.272c5.523,0,10-4.477,10-10
			S340.567,363.993,335.043,363.993z"/>
	</g>
</g>
<g>
	<g>
		<path d="M102.103,366.923c-1.86-1.86-4.441-2.93-7.07-2.93c-2.63,0-5.21,1.07-7.07,2.93c-1.86,1.86-2.93,4.44-2.93,7.07
			s1.07,5.21,2.93,7.07c1.86,1.86,4.44,2.93,7.07,2.93s5.21-1.07,7.07-2.93c1.86-1.86,2.93-4.44,2.93-7.07
			S103.963,368.783,102.103,366.923z"/>
	</g>
</g>
<g>
	<g>
		<path d="M335.043,427.996H132.771c-5.523,0-10,4.477-10,10c0,5.523,4.477,10,10,10h202.272c5.523,0,10-4.477,10-10
			C345.044,432.473,340.567,427.996,335.043,427.996z"/>
	</g>
</g>
<g>
	<g>
		<path d="M102.103,430.926c-1.86-1.86-4.441-2.93-7.07-2.93c-2.63,0-5.21,1.07-7.07,2.93c-1.86,1.86-2.93,4.44-2.93,7.07
			s1.07,5.21,2.93,7.07c1.86,1.86,4.44,2.93,7.07,2.93s5.21-1.07,7.07-2.93c1.86-1.86,2.93-4.44,2.93-7.07
			S103.963,432.786,102.103,430.926z"/>
	</g>
</g>
<g>
	<g>
		<path d="M251.613,236.018h-26.575v-26.575c0-5.523-4.477-10-10-10s-10,4.477-10,10v26.575h-26.575c-5.523,0-10,4.477-10,10
			c0,5.523,4.477,10.001,10,10.001h26.575v26.575c0,5.523,4.477,10,10,10s10-4.477,10-10v-26.575h26.575c5.523,0,10-4.477,10-10.001
			C261.614,240.495,257.137,236.018,251.613,236.018z"/>
	</g>
</g>
<g>
	<g>
		<path d="M215.037,158.014c-48.525,0-88.004,39.479-88.004,88.004c0,48.525,39.479,88.004,88.004,88.004
			c48.525,0,88.004-39.479,88.004-88.004C303.042,197.493,263.563,158.014,215.037,158.014z M215.037,314.021
			c-37.497,0-68.003-30.506-68.003-68.003s30.506-68.003,68.003-68.003s68.003,30.506,68.003,68.003
			S252.534,314.021,215.037,314.021z"/>
	</g>
</g>
<g>
	<g>
		<path d="M454.97,0H138.955c-16.543,0-30.001,13.459-30.001,30.001v53.978H57.03c-16.543,0-30.001,13.459-30.001,30.001v368.018
			C27.028,498.541,40.487,512,57.03,512h316.015c16.543,0,30.001-13.459,30.001-30.001V182.984c0-2.652-1.054-5.196-2.929-7.071
			l-89.004-89.004c-1.875-1.875-4.419-2.929-7.071-2.929H128.954V30.001c0-5.514,4.486-10,10-10H454.97c5.514,0,10,4.486,10,10
			v368.018c0,5.514-4.486,10-10,10h-23.295c-5.523,0-10,4.477-10,10c0,5.523,4.477,10,10,10h23.295
			c16.543,0,30.001-13.459,30.001-30.001V30.001C484.972,13.459,471.513,0,454.97,0z M314.042,118.123l54.861,54.861h-44.86
			c-5.514,0-10-4.486-10-10V118.123z M294.041,103.98v59.003c0,16.543,13.459,30.001,30.001,30.001h59.003v289.014
			c0,5.514-4.486,10-10,10H57.03c-5.514,0-10-4.486-10-10V113.981c0-5.514,4.486-10,10-10H294.041z"/>
	</g>
</g>
<g>
</g>
<g>
</g>
<g>
</g>
<g>
</g>
<g>
</g>
<g>
</g>
<g>
</g>
<g>
</g>
<g>
</g>
<g>
</g>
<g>
</g>
<g>
</g>
<g>
</g>
<g>
</g>
<g>
</g>
</svg>
