<?xml version="1.0" encoding="iso-8859-1"?>
<!-- Generator: Adobe Illustrator 19.0.0, SVG Export Plug-In . SVG Version: 6.00 Build 0)  -->
<svg version="1.1" id="Capa_1" xmlns="http://www.w3.org/2000/svg" xmlns:xlink="http://www.w3.org/1999/xlink" x="0px" y="0px"
	 viewBox="0 0 480 480" style="enable-background:new 0 0 480 480;" xml:space="preserve">
<g>
	<g>
		<path d="M440,128H40c-4.418,0-8,3.582-8,8v208c0,4.418,3.582,8,8,8h52.52c6.941,39.326,3.217,79.793-10.784,117.192
			c-1.551,4.137,0.546,8.748,4.683,10.299c0.897,0.336,1.847,0.509,2.805,0.509h301.552c4.418-0.002,7.999-3.585,7.997-8.003
			c0-0.958-0.173-1.908-0.509-2.805C384.263,431.793,380.539,391.326,387.48,352H440c4.418,0,8-3.582,8-8V136
			C448,131.582,444.418,128,440,128z M100.48,464c11.614-36.146,14.466-74.535,8.32-112h262.4c-6.146,37.465-3.294,75.854,8.32,112
			H100.48z M432,336h-41.384l24-110.304l-15.64-3.392L374.24,336H105.76L81.048,222.304l-15.64,3.392l24,110.304H48V144h184v51.72
			l-8,5.336v-32.912c0-4.418-3.582-8-8-8c-22.624-0.066-44.333,8.928-60.28,24.976c-28.091,27.923-43.835,65.928-43.72,105.536
			c-0.066,11.388,6.531,21.764,16.872,26.536c3.914,1.843,8.186,2.802,12.512,2.808c6.839-0.015,13.455-2.437,18.688-6.84
			l6.096-5.072c3.057-2.553,6.913-3.952,10.896-3.952h13.912c18.223-0.022,32.993-14.785,33.024-33.008V220.28l16-10.68l16,10.664
			v50.696c0.013,18.236,14.788,33.018,33.024,33.04h13.912c3.981,0.001,7.836,1.397,10.896,3.944l6.096,5.072
			c5.236,4.404,11.854,6.826,18.696,6.84c4.32-0.007,8.586-0.963,12.496-2.8c10.345-4.777,16.945-15.158,16.88-26.552
			c0.109-39.606-15.635-77.609-43.72-105.536C308.329,168.927,286.622,159.936,264,160c-4.418,0-8,3.582-8,8v33.056l-8-5.336V144
			h184V336z M208,176.592v94.536c-0.018,9.393-7.63,17.003-17.024,17.016h-13.912c-7.729,0.003-15.212,2.711-21.152,7.656
			l-6.088,5.072c-5.643,4.706-14.032,3.945-18.738-1.698c-1.994-2.391-3.086-5.405-3.086-8.518
			c-0.102-35.362,13.954-69.293,39.032-94.224C178.034,185.352,192.485,178.354,208,176.592z M272,270.976v-94.52
			c15.512,1.761,29.961,8.753,40.968,19.824c25.074,24.934,39.129,58.863,39.032,94.224c0.003,7.348-5.95,13.307-13.298,13.31
			c-3.116,0.001-6.133-1.091-8.526-3.086l-6.096-5.08c-5.942-4.935-13.42-7.64-21.144-7.648h-13.912
			C279.626,287.991,272.009,280.374,272,270.976z"/>
	</g>
</g>
<g>
	<g>
		<path d="M405.712,56H304V8c0-4.418-3.582-8-8-8H184c-4.418,0-8,3.582-8,8v48H74.288C33.285,56.062,0.062,89.285,0,130.288V168h16
			v-37.712C16.062,98.122,42.122,72.062,74.288,72H184c4.418,0,8-3.582,8-8V16h96v48c0,4.418,3.582,8,8,8h109.712
			c32.166,0.062,58.226,26.122,58.288,58.288V168h16v-37.712C479.938,89.285,446.715,56.062,405.712,56z"/>
	</g>
</g>
<g>
	<g>
		<polygon points="186.344,218.344 172.688,232 152,232 152,248 168,248 168,264 184,264 184,243.312 197.656,229.656 		"/>
	</g>
</g>
<g>
	<g>
		<polygon points="307.312,232 293.656,218.344 282.344,229.656 296,243.312 296,264 312,264 312,248 328,248 328,232 		"/>
	</g>
</g>
<g>
</g>
<g>
</g>
<g>
</g>
<g>
</g>
<g>
</g>
<g>
</g>
<g>
</g>
<g>
</g>
<g>
</g>
<g>
</g>
<g>
</g>
<g>
</g>
<g>
</g>
<g>
</g>
<g>
</g>
</svg>
