<?xml version="1.0" encoding="iso-8859-1"?>
<!-- Generator: Adobe Illustrator 19.0.0, SVG Export Plug-In . SVG Version: 6.00 Build 0)  -->
<svg version="1.1" id="Layer_1" xmlns="http://www.w3.org/2000/svg" xmlns:xlink="http://www.w3.org/1999/xlink" x="0px" y="0px"
	 viewBox="0 0 512.002 512.002" style="enable-background:new 0 0 512.002 512.002;" xml:space="preserve">
<g>
	<g>
		<g>
			<path d="M198.208,178.158h28.259c3.666,0,6.637,2.971,6.637,6.637v28.259c0,3.666,2.971,6.637,6.637,6.637h32.52
				c3.666-0.002,6.637-2.973,6.637-6.638v-28.259c0-3.666,2.971-6.637,6.637-6.637h28.259c3.666,0,6.637-2.971,6.637-6.637v-32.518
				c0-3.666-2.971-6.637-6.637-6.637h-28.259c-3.666,0-6.637-2.971-6.637-6.637V97.469c0-3.666-2.971-6.637-6.637-6.637h-32.52
				c-3.666,0-6.637,2.971-6.637,6.637v28.259c0,3.666-2.971,6.637-6.637,6.637h-28.259c-3.666,0-6.637,2.971-6.637,6.637v32.52
				C191.571,175.187,194.542,178.158,198.208,178.158z"/>
			<path d="M450.611,54.045c0-29.8-24.245-54.045-54.045-54.045H115.435C85.635,0,61.39,24.245,61.39,54.045v403.912
				c0,29.8,24.245,54.045,54.045,54.045h197.978c3.3,0,6.606-1.295,9.072-3.758l124.37-124.368c2.282-2.282,3.756-5.559,3.756-9.071
				L450.611,54.045L450.611,54.045z M326.241,468.201v-52.184c0-15.653,12.733-28.386,28.387-28.386h52.184
				C398.256,396.186,334.554,459.886,326.241,468.201z M424.954,361.974h-70.325c-29.8,0-54.045,24.243-54.045,54.043v70.325
				H115.435c-15.653,0-28.387-12.735-28.387-28.387V54.045c0-15.653,12.735-28.387,28.387-28.387h281.131
				c15.653,0,28.387,12.735,28.387,28.387V361.974z"/>
			<path d="M374.458,284.224H137.545c-7.085,0-12.829,5.744-12.829,12.829c0,7.085,5.744,12.829,12.829,12.829h236.913
				c7.087,0,12.829-5.744,12.829-12.829C387.287,289.968,381.545,284.224,374.458,284.224z"/>
			<path d="M267.975,347.512h-130.43c-7.085,0-12.829,5.744-12.829,12.829c0,7.085,5.744,12.829,12.829,12.829h130.43
				c7.087,0,12.829-5.744,12.829-12.829C280.804,353.256,275.062,347.512,267.975,347.512z"/>
			<path d="M267.975,410.8h-130.43c-7.085,0-12.829,5.744-12.829,12.829s5.744,12.829,12.829,12.829h130.43
				c7.087,0,12.829-5.744,12.829-12.829C280.804,416.543,275.06,410.8,267.975,410.8z"/>
		</g>
	</g>
</g>
<g>
</g>
<g>
</g>
<g>
</g>
<g>
</g>
<g>
</g>
<g>
</g>
<g>
</g>
<g>
</g>
<g>
</g>
<g>
</g>
<g>
</g>
<g>
</g>
<g>
</g>
<g>
</g>
<g>
</g>
</svg>
