<svg id="Layer_1" enable-background="new 0 0 512.16 512.16" height="512" viewBox="0 0 512.16 512.16" width="512" xmlns="http://www.w3.org/2000/svg"><g><path d="m437.156 75.004c-48.367-48.367-112.675-75.004-181.076-75.004s-132.709 26.637-181.076 75.004-75.004 112.675-75.004 181.076 26.637 132.709 75.004 181.076 112.674 75.004 181.076 75.004 132.709-26.637 181.076-75.004 75.004-112.675 75.004-181.076-26.637-132.709-75.004-181.076zm-21.213 340.938c-42.701 42.701-99.475 66.218-159.863 66.218s-117.162-23.517-159.862-66.218c-42.701-42.7-66.218-99.474-66.218-159.862s23.517-117.162 66.218-159.862c42.7-42.701 99.474-66.218 159.862-66.218 60.389 0 117.162 23.517 159.863 66.218 42.7 42.7 66.217 99.475 66.217 159.862s-23.517 117.162-66.217 159.862z"/><path d="m402.463 188.509h-78.523v-78.523c0-8.284-6.716-15-15-15h-104.792c-8.284 0-15 6.716-15 15v78.523h-78.523c-8.284 0-15 6.716-15 15v104.792c0 8.284 6.716 15 15 15h78.523v78.522c0 8.284 6.716 15 15 15h104.792c8.284 0 15-6.716 15-15v-78.522h78.523c8.284 0 15-6.716 15-15v-104.792c0-8.284-6.716-15-15-15zm-15 104.792h-78.523c-8.284 0-15 6.716-15 15v78.522h-74.792v-78.522c0-8.284-6.716-15-15-15h-78.523v-74.792h78.523c8.284 0 15-6.716 15-15v-78.523h74.792v78.523c0 8.284 6.716 15 15 15h78.523z"/></g></svg>