<svg id="_x31__px" height="512" viewBox="0 0 24 24" width="512" xmlns="http://www.w3.org/2000/svg"><g><g><path d="m9 10c-2.757 0-5-2.243-5-5s2.243-5 5-5 5 2.243 5 5-2.243 5-5 5zm0-9c-2.206 0-4 1.794-4 4s1.794 4 4 4 4-1.794 4-4-1.794-4-4-4z"/></g><g><path d="m6.5 21h-6c-.276 0-.5-.224-.5-.5v-4c0-2.481 2.019-4.5 4.5-4.5h9c1.227 0 2.408.505 3.243 1.386.19.2.182.517-.019.707-.2.191-.517.182-.707-.019-.646-.682-1.564-1.074-2.517-1.074h-9c-1.93 0-3.5 1.57-3.5 3.5v3.5h5.5c.276 0 .5.224.5.5s-.224.5-.5.5z"/></g></g><g><path d="m14.5 24c-.189 0-.362-.106-.447-.276l-1.862-3.724h-2.691c-.276 0-.5-.224-.5-.5s.224-.5.5-.5h3c.189 0 .362.107.447.276l1.518 3.036 2.575-6.009c.077-.179.25-.297.445-.303.193.007.375.102.462.276l2.862 5.724h2.691c.276 0 .5.224.5.5s-.224.5-.5.5h-3c-.189 0-.362-.107-.447-.276l-2.518-5.036-2.575 6.009c-.077.179-.25.297-.445.303-.005 0-.01 0-.015 0z"/></g></svg>