<?xml version="1.0" encoding="iso-8859-1"?>
<!-- Generator: Adobe Illustrator 19.0.0, SVG Export Plug-In . SVG Version: 6.00 Build 0)  -->
<svg version="1.1" id="Capa_1" xmlns="http://www.w3.org/2000/svg" xmlns:xlink="http://www.w3.org/1999/xlink" x="0px" y="0px"
	 viewBox="0 0 464.985 464.985" style="enable-background:new 0 0 464.985 464.985;" xml:space="preserve">
<g>
	<g>
		<path d="M457.145,218.479L386.092,75.327c-1.875-3.465-5.465-5.659-9.404-5.747l-4.702,1.045h-91.951
			c-6.798-26.257-33.594-42.032-59.851-35.235c-17.274,4.472-30.763,17.961-35.235,35.235H92.998l-4.702-1.045
			c-3.939,0.088-7.529,2.282-9.404,5.747L7.839,218.479c-4.655,1.001-7.943,5.166-7.837,9.927c0,43.886,39.706,79.935,88.294,79.935
			s88.816-36.049,88.816-79.935c-0.086-4.694-3.291-8.754-7.837-9.927L106.06,91.523h78.367
			c3.951,18.899,18.717,33.665,37.616,37.616v183.38c-33.959,4.18-60.604,29.78-64.784,55.902h-22.988
			c-6.132,0.493-11.001,5.362-11.494,11.494v41.796c0.545,5.745,5.645,9.96,11.39,9.414c0.035-0.003,0.069-0.007,0.104-0.01h196.441
			c5.739,0.603,10.881-3.561,11.483-9.3c0.004-0.035,0.007-0.069,0.01-0.104v-41.796c-0.493-6.132-5.362-11.001-11.494-11.494
			h-22.988c-4.18-26.122-30.825-51.722-64.784-55.902V129.14c18.899-3.951,33.665-18.717,37.616-37.616h78.367l-63.216,126.955
			c-4.545,1.173-7.751,5.233-7.837,9.927c0,43.886,39.706,79.935,88.816,79.935c49.11,0,88.294-36.049,88.294-79.935
			C465.089,223.645,461.8,219.48,457.145,218.479z M88.296,286.397c-32.914,0-60.604-22.465-66.351-48.588H155.17
			C149.423,263.932,121.733,286.397,88.296,286.397z M145.766,216.911H31.349l56.947-114.416L145.766,216.911z M321.309,389.319
			v20.898H143.676v-20.898H321.309z M286.305,368.421H178.68c4.18-20.898,26.645-36.571,53.812-36.571
			S282.125,347.523,286.305,368.421z M232.492,109.809c-15.581,0-28.212-12.631-28.212-28.212c0-15.581,12.631-28.212,28.212-28.212
			c15.581,0,28.212,12.631,28.212,28.212C260.705,97.178,248.073,109.809,232.492,109.809z M376.688,102.495l56.947,114.416H319.219
			L376.688,102.495z M376.688,286.397c-33.437,0-61.127-22.465-66.873-48.588h133.224
			C437.292,263.932,409.603,286.397,376.688,286.397z"/>
	</g>
</g>
<g>
</g>
<g>
</g>
<g>
</g>
<g>
</g>
<g>
</g>
<g>
</g>
<g>
</g>
<g>
</g>
<g>
</g>
<g>
</g>
<g>
</g>
<g>
</g>
<g>
</g>
<g>
</g>
<g>
</g>
</svg>
