<svg id="Layer_1" enable-background="new 0 0 512 512" height="512" viewBox="0 0 512 512" width="512" xmlns="http://www.w3.org/2000/svg"><g><path d="m507.514 249.429-217.665-213.93c-18.665-18.347-49.034-18.346-67.698-.001l-217.665 213.931c-5.909 5.808-5.991 15.305-.184 21.213 5.807 5.907 15.304 5.991 21.212.184l16.939-16.649v170.797c0 35.999 29.288 65.287 65.287 65.287h296.52c35.999 0 65.287-29.288 65.287-65.287v-170.797l16.939 16.649c2.921 2.87 6.718 4.302 10.513 4.302 3.882 0 7.763-1.498 10.699-4.485 5.807-5.909 5.725-15.406-.184-21.214zm-67.968 175.545c0 19.457-15.83 35.287-35.287 35.287h-296.519c-19.457 0-35.287-15.83-35.287-35.287v-200.282l170.727-167.798c1.767-1.737 3.812-3.04 5.995-3.909 6.003-2.388 13.053-1.493 18.27 2.687.474.38.933.787 1.375 1.222l170.727 167.797v200.283z"/><path d="m210.929 196.98v48.271h-48.274c-8.284 0-15 6.716-15 15v59.866c0 8.284 6.716 15 15 15h48.274v48.27c0 8.284 6.716 15 15 15h59.866c8.284 0 15-6.716 15-15v-48.27h48.266c8.284 0 15-6.716 15-15v-59.866c0-8.284-6.716-15-15-15h-48.266v-48.271c0-8.284-6.716-15-15-15h-59.866c-8.284 0-15 6.716-15 15zm30 63.271v-48.271h29.866v48.271c0 8.284 6.716 15 15 15h48.266v29.866h-48.266c-8.284 0-15 6.716-15 15v48.27h-29.866v-48.27c0-8.284-6.716-15-15-15h-48.274v-29.866h48.274c8.284 0 15-6.716 15-15z"/></g></svg>