<?xml version="1.0" encoding="iso-8859-1"?>
<!-- Generator: Adobe Illustrator 19.0.0, SVG Export Plug-In . SVG Version: 6.00 Build 0)  -->
<svg version="1.1" id="Layer_1" xmlns="http://www.w3.org/2000/svg" xmlns:xlink="http://www.w3.org/1999/xlink" x="0px" y="0px"
	 viewBox="0 0 512 512" style="enable-background:new 0 0 512 512;" xml:space="preserve">
<g>
	<g>
		<path d="M397.74,172.171c-26.944-46.24-75.1-76.472-127.794-81.333V75.147c0-11.958-13.153-19.101-23.098-12.496
			c-95.721,63.565-85.468,56.38-90.968,60.699c-8.034,6.313-7.528,18.644,0.962,24.288c66.549,44.246,47.63,31.631,89.791,59.86
			c9.852,6.803,23.248-0.285,23.314-12.268c0-0.001,0-0.003,0-0.004c0-0.004,0-0.009,0-0.013c0-0.004,0-0.008,0-0.012
			c0-0.003,0-0.006,0-0.01c0-0.006,0-0.011,0-0.017c0-0.002,0-0.004,0-0.006c0-0.007,0-0.014,0-0.021v-13.486
			c19.472,3.98,36.944,15.634,48.127,32.83c4.131,6.561,12.621,8.885,19.511,5.354l53.854-26.681
			C399.221,189.309,402.106,179.664,397.74,172.171z M335.324,187.487c-19.88-23.59-48.988-37.339-80.177-37.339
			c-8.284,0-15,6.716-15,15v1.905l-11.196-7.496l-36.876-24.518l48.072-31.924v2.033c0,8.284,6.716,15,15,15
			c42.429,0,82.391,20.23,107.72,53.693L335.324,187.487z"/>
	</g>
</g>
<g>
	<g>
		<path d="M195.773,272.142l-11.778,6.769c-2.558-7.649-3.849-15.599-3.849-23.764c0-12.099,2.769-23.625,8.229-34.26
			c3.482-6.782,1.323-15.097-5.018-19.328l-49.981-33.351c-7.219-4.816-17.008-2.514-21.328,4.999
			c-14.328,24.911-21.901,53.245-21.901,81.941c0,23.997,5.211,47.626,15.168,69.154l-13.642,7.841
			c-10.392,5.972-9.897,21.149,0.825,26.451c16.897,8.356,96.493,47.759,97.668,48.221c9.53,4.312,20.49-2.242,21.151-12.723
			l4.198-66.567l2.701-41.4C218.994,274.19,206.131,266.19,195.773,272.142z M185.577,325.603l-2.786,44.175l-51.813-25.624
			l1.744-1.002c7.204-4.141,9.669-13.357,5.495-20.542c-11.99-20.633-18.069-43.331-18.069-67.464
			c0-18.07,3.676-35.969,10.721-52.548l25.451,16.983c-4.06,11.349-6.172,23.433-6.172,35.565c0,18.214,4.827,36.337,13.959,52.41
			c4.104,7.223,13.312,9.737,20.516,5.595l1.835-1.055L185.577,325.603z"/>
	</g>
</g>
<g>
	<g>
		<path d="M426.114,344.162c-6.916-105.114-5.654-86.343-7.206-108.084c-0.757-10.621-12.066-17.102-21.614-12.375l-59.413,29.407
			l-37.5,18.6c-10.73,5.322-11.173,20.487-0.809,26.443l11.763,6.76c-13.244,14.99-31.999,24.147-52.447,25.144
			c-7.623,0.371-13.752,6.408-14.239,14.025l-3.844,60.107c-0.553,8.644,6.317,15.957,14.969,15.957c0.021,0,0.041,0,0.062,0
			c54.828-0.226,103.898-27.445,134.074-69.903l13.762,7.909C414.044,364.115,426.898,356.082,426.114,344.162z M392.522,317.142
			c-7.146-4.107-16.271-1.678-20.428,5.442c-21.459,36.751-58.916,61.264-100.262,66.51l1.956-30.588
			c30.262-5.388,56.687-23.75,72.347-50.854c4.148-7.18,1.679-16.376-5.514-20.509l-1.778-1.022l51.704-25.604l3.794,57.672
			L392.522,317.142z"/>
	</g>
</g>
<g>
	<g>
		<path d="M255.147,0C114.458,0,0,114.458,0,255.147C0,396.254,114.325,512,255.147,512C396.144,512,512,396.098,512,255.147
			C512,114.58,396.533,0,255.147,0z M255.147,482C131,482,30,380.234,30,255.147C30,131,131,30,255.147,30
			C380.234,30,482,131,482,255.147C482,380.234,380.234,482,255.147,482z"/>
	</g>
</g>
<g>
</g>
<g>
</g>
<g>
</g>
<g>
</g>
<g>
</g>
<g>
</g>
<g>
</g>
<g>
</g>
<g>
</g>
<g>
</g>
<g>
</g>
<g>
</g>
<g>
</g>
<g>
</g>
<g>
</g>
</svg>
